<svg width="20" height="20" viewBox="0 0 20 20" fill="none" xmlns="http://www.w3.org/2000/svg">
<g clip-path="url(#clip0_267_2938)">
<path d="M10.0001 19.2252C15.0951 19.2252 19.2255 15.0949 19.2255 9.99981C19.2255 4.90477 15.0951 0.774414 10.0001 0.774414C4.90501 0.774414 0.774658 4.90477 0.774658 9.99981C0.774658 15.0949 4.90501 19.2252 10.0001 19.2252Z" fill="#26D361"/>
<path d="M10 20C4.48645 20 0 15.5143 0 10C0 4.48645 4.48645 0 10 0C15.5143 0 20 4.48645 20 10C20 15.5143 15.5143 20 10 20ZM10 1.54918C5.34004 1.54918 1.54918 5.34004 1.54918 10C1.54918 14.66 5.34004 18.4508 10 18.4508C14.66 18.4508 18.4508 14.6592 18.4508 10C18.4508 5.34004 14.66 1.54918 10 1.54918Z" fill="#26D361"/>
<path d="M8.7916 13.6793C8.58402 13.6793 8.3857 13.5964 8.23929 13.4477L5.38105 10.543C5.08129 10.2378 5.08515 9.74828 5.39035 9.44774C5.69554 9.14875 6.18586 9.15184 6.48562 9.45703L8.76914 11.7777L13.4934 6.57477C13.7823 6.25797 14.2719 6.23551 14.5871 6.52211C14.9039 6.80949 14.9271 7.29903 14.6398 7.6166L9.3648 13.426C9.22152 13.584 9.02011 13.6754 8.80711 13.6801C8.80168 13.6793 8.79703 13.6793 8.7916 13.6793Z" fill="white"/>
</g>
<defs>
<clipPath id="clip0_267_2938">
<rect width="20" height="20" fill="white"/>
</clipPath>
</defs>
</svg>
