<svg width="53" height="53" viewBox="0 0 53 53" fill="none" xmlns="http://www.w3.org/2000/svg">
<g filter="url(#filter0_d_267_3065)">
<circle cx="26.738" cy="22.738" r="22.0613" fill="#092578"/>
</g>
<path d="M23.4496 30.7905L31.1098 23.2694C31.2534 23.1284 31.3341 22.9371 31.3341 22.7376C31.3341 22.5381 31.2534 22.3469 31.1097 22.2058L23.4496 14.6851C23.1504 14.3914 22.6654 14.3914 22.3663 14.6851C22.0671 14.9788 22.0671 15.455 22.3663 15.7487L29.4847 22.7376L22.3663 29.7269C22.2167 29.8738 22.1419 30.0662 22.1419 30.2587C22.1419 30.4512 22.2167 30.6437 22.3663 30.7906C22.6655 31.0842 23.1504 31.0842 23.4496 30.7905Z" fill="white"/>
<defs>
<filter id="filter0_d_267_3065" x="0.676758" y="0.676758" width="52.1226" height="52.123" filterUnits="userSpaceOnUse" color-interpolation-filters="sRGB">
<feFlood flood-opacity="0" result="BackgroundImageFix"/>
<feColorMatrix in="SourceAlpha" type="matrix" values="0 0 0 0 0 0 0 0 0 0 0 0 0 0 0 0 0 0 127 0" result="hardAlpha"/>
<feOffset dy="4"/>
<feGaussianBlur stdDeviation="2"/>
<feComposite in2="hardAlpha" operator="out"/>
<feColorMatrix type="matrix" values="0 0 0 0 0 0 0 0 0 0 0 0 0 0 0 0 0 0 0.25 0"/>
<feBlend mode="normal" in2="BackgroundImageFix" result="effect1_dropShadow_267_3065"/>
<feBlend mode="normal" in="SourceGraphic" in2="effect1_dropShadow_267_3065" result="shape"/>
</filter>
</defs>
</svg>
